<svg xmlns="http://www.w3.org/2000/svg" width="40" height="21" viewBox="0 0 40 21">
    <g fill="none" fill-rule="evenodd">
        <g>
            <g transform="translate(-20 -21) translate(20 21)">
                <rect width="40" height="21" fill="#FFEF80" rx="2"/>
                <path fill="#1A1F2A" fill-rule="nonzero" d="M19.47 14.08c.327 0 .625-.067.895-.2s.475-.317.615-.55c.02.227.108.405.265.535.157.13.358.195.605.195.267 0 .48-.073.64-.22.16-.147.24-.347.24-.6V7.7c0-.233-.085-.425-.255-.575-.17-.15-.388-.225-.655-.225s-.478.07-.635.21c-.157.14-.235.327-.235.56v1.99c-.147-.213-.352-.383-.615-.51s-.552-.19-.865-.19c-.427 0-.805.103-1.135.31-.33.207-.587.502-.77.885-.183.383-.275.828-.275 1.335s.093.957.28 1.35c.187.393.445.698.775.915.33.217.705.325 1.125.325zm.54-1.33c-.3 0-.535-.11-.705-.33-.17-.22-.255-.53-.255-.93 0-.387.083-.683.25-.89.167-.207.403-.31.71-.31.313 0 .553.105.72.315.167.21.25.512.25.905 0 .4-.083.707-.25.92-.167.213-.407.32-.72.32z"/>
            </g>
        </g>
    </g>
</svg>
