<svg xmlns="http://www.w3.org/2000/svg" width="76" height="12" viewBox="0 0 76 12">
    <g fill="none" fill-rule="evenodd">
        <g>
            <g>
                <path fill="#80FFFC" d="M2 12h72c1.105 0 2-.895 2-2V2c0-1.105-.895-2-2-2H2C.895 0 0 .895 0 2v8c0 1.105.895 2 2 2z" transform="translate(-20 -45) translate(20 45)"/>
                <path fill="#1A1F2A" fill-rule="nonzero" d="M37.84 10.05c.253 0 .465-.07.635-.21.17-.14.255-.347.255-.62V6.39h.55c.533 0 .8-.22.8-.66 0-.433-.267-.65-.8-.65h-.55v-.12c0-.213.048-.385.145-.515.097-.13.265-.205.505-.225l.26-.02c.207-.013.37-.075.49-.185s.18-.265.18-.465-.063-.353-.19-.46c-.127-.107-.333-.16-.62-.16-.087 0-.157.003-.21.01l-.26.02c-.633.047-1.135.252-1.505.615-.37.363-.562.865-.575 1.505h-.29c-.533 0-.8.217-.8.65 0 .44.267.66.8.66h.29v2.83c0 .273.085.48.255.62.17.14.382.21.635.21z" transform="translate(-20 -45) translate(20 45)"/>
            </g>
        </g>
    </g>
</svg>
