<svg xmlns="http://www.w3.org/2000/svg" width="33" height="35" viewBox="0 0 33 35">
    <g fill="none" fill-rule="evenodd">
        <g>
            <g>
                <g>
                    <g>
                        <g transform="translate(-1233 -187) translate(1170 119) translate(0 40.039) translate(0 19.506) translate(63 9.24)">
                            <rect width="32" height="32.879" x=".5" y=".5" fill="#FF80D4" fill-opacity=".25" stroke="#FF80D4" stroke-opacity=".7" rx="2"/>
                            <path fill="#FFF" fill-rule="nonzero" d="M14.43 25.512c.26 0 .47-.072.63-.216.16-.143.24-.335.24-.575v-1.745c.147.22.352.394.615.524s.552.195.865.195c.427 0 .803-.106 1.13-.319.327-.212.582-.515.765-.908.183-.394.275-.85.275-1.37 0-.52-.092-.983-.275-1.387-.183-.403-.44-.717-.77-.939-.33-.222-.705-.334-1.125-.334-.327 0-.625.069-.895.206-.27.137-.475.325-.615.564-.02-.226-.108-.407-.265-.544-.157-.137-.362-.205-.615-.205-.267 0-.478.077-.635.23-.157.155-.235.358-.235.612v5.39c0 .24.083.436.25.59.167.154.387.23.66.23zm1.81-3.183c-.313 0-.553-.107-.72-.323-.167-.216-.25-.525-.25-.93 0-.41.083-.725.25-.944.167-.219.403-.328.71-.328.307 0 .543.111.71.333.167.223.25.543.25.96 0 .397-.082.702-.245.914-.163.212-.398.318-.705.318z"/>
                        </g>
                    </g>
                </g>
            </g>
        </g>
    </g>
</svg>
