<svg xmlns="http://www.w3.org/2000/svg" width="33" height="33" viewBox="0 0 33 33">
    <g fill="none" fill-rule="evenodd">
        <g>
            <g transform="translate(-63 -9) translate(63 9)">
                <rect width="33" height="33" fill="#FF80D4" rx="2"/>
                <path fill="#1A1F2A" fill-rule="nonzero" d="M14.43 24.85c.26 0 .47-.07.63-.21.16-.14.24-.327.24-.56v-1.7c.147.213.352.383.615.51s.552.19.865.19c.427 0 .803-.103 1.13-.31.327-.207.582-.502.765-.885.183-.383.275-.828.275-1.335s-.092-.957-.275-1.35c-.183-.393-.44-.698-.77-.915-.33-.217-.705-.325-1.125-.325-.327 0-.625.067-.895.2s-.475.317-.615.55c-.02-.22-.108-.397-.265-.53-.157-.133-.362-.2-.615-.2-.267 0-.478.075-.635.225-.157.15-.235.348-.235.595v5.25c0 .233.083.425.25.575.167.15.387.225.66.225zm1.81-3.1c-.313 0-.553-.105-.72-.315-.167-.21-.25-.512-.25-.905 0-.4.083-.707.25-.92.167-.213.403-.32.71-.32.307 0 .543.108.71.325.167.217.25.528.25.935 0 .387-.082.683-.245.89-.163.207-.398.31-.705.31z"/>
            </g>
        </g>
    </g>
</svg>
