<svg xmlns="http://www.w3.org/2000/svg" width="96" height="44" viewBox="0 0 96 44">
    <g fill="none" fill-rule="evenodd">
        <g>
            <g>
                <g>
                    <g transform="translate(-1170 -178) translate(1170 119) translate(0 40.039) translate(0 19.506)">
                        <path fill="#FFAF80" fill-opacity=".25" stroke="#FFAF80" stroke-opacity=".7" d="M4.667 4.607l.5 4.237c0 .414.168.789.439 1.06.271.272.646.44 1.06.44h3.667l.5 9.974c0 .414.168.789.44 1.06.271.272.646.44 1.06.44H15c.414 0 .79.168 1.06.44.272.27.44.646.44 1.06h0v17.8c0 .415-.168.79-.44 1.061-.27.272-.646.44-1.06.44h0H2c-.414 0-.79-.168-1.06-.44-.272-.271-.44-.646-.44-1.06h0V6.107c0-.415.168-.79.44-1.061.27-.272.646-.44 1.06-.44h2.667z"/>
                        <rect width="5" height="5.16" x="90.5" y=".5" fill="#FFAF80" fill-opacity=".25" stroke="#FFAF80" stroke-opacity=".7" rx="2"/>
                        <path fill="#FFF" fill-rule="nonzero" d="M8.46 33.961c.68 0 1.222-.149 1.625-.447.403-.297.605-.696.605-1.196 0-.444-.133-.785-.4-1.021-.267-.236-.723-.412-1.37-.529-.387-.075-.645-.143-.775-.205s-.195-.147-.195-.257c0-.096.047-.17.14-.22.093-.052.223-.077.39-.077s.312.018.435.056c.123.038.265.094.425.17.24.116.447.174.62.174.147 0 .27-.065.37-.195.1-.13.15-.291.15-.483 0-.273-.103-.472-.31-.595-.22-.137-.472-.243-.755-.318-.283-.076-.575-.113-.875-.113-.413 0-.787.072-1.12.215-.333.144-.595.343-.785.596-.19.253-.285.537-.285.852 0 .431.132.765.395 1 .263.237.692.413 1.285.53.333.068.57.121.71.159.14.037.235.077.285.118.05.04.075.099.075.174 0 .096-.052.17-.155.221-.103.051-.245.077-.425.077-.253 0-.462-.02-.625-.062-.163-.04-.352-.099-.565-.174-.127-.055-.233-.094-.32-.118-.087-.024-.18-.036-.28-.036-.147 0-.268.06-.365.18-.097.12-.145.272-.145.456 0 .144.027.274.08.39.053.117.127.199.22.247.233.15.503.26.81.328.307.069.683.103 1.13.103z"/>
                    </g>
                </g>
            </g>
        </g>
    </g>
</svg>
