<?xml version="1.0" encoding="utf-8"?>
<!-- Generator: Adobe Illustrator 24.0.1, SVG Export Plug-In . SVG Version: 6.00 Build 0)  -->
<svg version="1.1" id="Layer_1" xmlns="http://www.w3.org/2000/svg" xmlns:xlink="http://www.w3.org/1999/xlink" x="0px" y="0px"
	 viewBox="0 0 500 500" style="enable-background:new 0 0 500 500;" xml:space="preserve">
<style type="text/css">
	.st0{fill:#E5BB09;}
</style>
<g>
	<g>
		<path class="st0" d="M131,463.2c-6.6-23.1-2.7-48.1,7.7-69.5c10-20.5,25.6-37.8,43.1-52.2c17.6-14.5,37.4-26.5,58.1-36.2
			c21-9.8,42.9-17.4,65.3-23.4c22.4-6,45.1-10.4,68-13.8c2.8-0.4,5.6-0.8,8.4-1.2c1.9-0.3,1.1-3.2-0.8-2.9
			c-23.3,3.3-46.6,7.5-69.4,13.3c-22.7,5.7-45.1,13-66.5,22.5c-21.2,9.4-41.3,21-59.6,35.2c-18.2,14.1-34.7,31-46,51.3
			c-11.6,20.9-17.3,45.6-13.1,69.3c0.5,2.9,1.2,5.7,2,8.5C128.6,465.8,131.5,465.1,131,463.2L131,463.2z"/>
	</g>
</g>
<g>
	<g>
		<path class="st0" d="M338.7,239.1c19.2,2.8,38.5,5.4,57.6,8.4c4.5,0.7,9.2,1.6,13.4,3.4c1.8,0.8,2.4,1.9,1.3,3.7
			c-1,1.6-2.6,2.8-4.1,3.9c-6.5,5.3-12.6,11.2-18.1,17.5c-6.1,7.1-11.5,14.8-16.2,23c-1,1.7,1.6,3.2,2.6,1.5
			c8.6-15.3,20.1-28.9,33.8-39.9c2.6-2.1,6.7-5.3,5.4-9.2c-0.7-2-2.5-2.9-4.3-3.6c-2.2-0.9-4.5-1.5-6.9-2.1
			c-4.8-1.1-9.7-1.7-14.5-2.4c-5-0.7-10-1.5-15-2.2c-11.4-1.7-22.9-3.3-34.3-5C337.6,235.9,336.8,238.8,338.7,239.1L338.7,239.1z"/>
	</g>
</g>
</svg>
