<?xml version="1.0" encoding="utf-8"?>
<!-- Generator: Adobe Illustrator 24.0.1, SVG Export Plug-In . SVG Version: 6.00 Build 0)  -->
<svg version="1.1" id="Layer_1" xmlns="http://www.w3.org/2000/svg" xmlns:xlink="http://www.w3.org/1999/xlink" x="0px" y="0px"
	 viewBox="0 0 500 500" style="enable-background:new 0 0 500 500;" xml:space="preserve">
<style type="text/css">
	.st0{fill:#E5BB09;}
</style>
<g>
	<g>
		<path class="st0" d="M320.1,447.1c13.7-20.3,23.2-43.2,29.2-67c6.4-25.4,8.6-51.8,8.3-77.9c-0.3-26.7-2.7-53.8-8-80.1
			c-4.9-24.4-13.5-47.7-25.9-69.4c-11.9-20.7-26.5-39.8-42.5-57.5c-2-2.2-4-4.4-6-6.5c-1.3-1.4-3.4,0.7-2.1,2.1
			c16.1,17.3,31.1,35.7,43.5,55.8c12.8,20.7,22.3,43,28,66.6c6.2,25.7,8.8,52.4,9.8,78.8c1,26.3-0.4,52.8-5.9,78.6
			c-5,23.6-13.4,46.5-26,67.2c-1.6,2.6-3.2,5.1-4.9,7.6C316.4,447.1,319,448.6,320.1,447.1L320.1,447.1z"/>
	</g>
</g>
<g>
	<g>
		<path class="st0" d="M269.6,137.4c-1.8-23.6-13.3-44.9-16.9-68.1c-0.4-2.8-0.8-5.7-0.9-8.6c0-0.9-0.1-2.3,0.7-3
			c1-0.9,2.4,0,3.3,0.6c2.3,1.5,4.2,3.8,6.3,5.6c2.1,1.8,4.2,3.6,6.4,5.4c8.7,6.9,18.1,13,28,18c11.2,5.6,23,10,35.1,13
			c1.9,0.5,2.7-2.4,0.8-2.9c-22.5-5.4-43.7-15.8-61.8-30.2c-2.3-1.8-4.5-3.7-6.7-5.6c-2.1-1.8-4-4-6.2-5.6c-2-1.5-4.8-2.3-7-0.6
			c-2.1,1.7-1.9,4.7-1.7,7.2c0.9,12.1,4.4,23.8,8.1,35.3c4.1,12.9,8.6,25.9,9.6,39.5C266.7,139.3,269.7,139.3,269.6,137.4
			L269.6,137.4z"/>
	</g>
</g>
</svg>
