<svg xmlns="http://www.w3.org/2000/svg" width="20" height="19" viewBox="0 0 20 19">
    <g fill="none" fill-rule="evenodd">
        <g fill="#FFF">
            <g>
                <g>
                    <g>
                        <g>
                            <path d="M10 10.855c2.268 0 4.112-1.844 4.112-4.112 0-2.012-2.9-5.587-3.48-6.284-.313-.374-.95-.374-1.263 0-.582.696-3.481 4.272-3.481 6.284 0 2.268 1.844 4.112 4.112 4.112zm0-8.55c1.176 1.535 2.467 3.556 2.467 4.438 0 1.361-1.106 2.468-2.467 2.468S7.533 8.104 7.533 6.743c0-.882 1.291-2.902 2.467-4.438zM.954 14.243c.89 0 1.3.263 1.817.595.595.38 1.334.853 2.705.853s2.11-.473 2.703-.853c.518-.332.927-.595 1.818-.595.89 0 1.3.263 1.82.595.593.38 1.333.853 2.705.853 1.371 0 2.111-.473 2.705-.853.52-.332.928-.595 1.82-.595.454 0 .822-.368.822-.822 0-.454-.368-.822-.822-.822-1.372 0-2.112.473-2.706.853-.518.332-.928.594-1.818.594s-1.3-.262-1.819-.594c-.594-.38-1.334-.853-2.705-.853-1.372 0-2.11.473-2.704.853-.518.332-.927.594-1.817.594-.89 0-1.3-.262-1.818-.594-.596-.38-1.335-.853-2.706-.853-.454 0-.822.368-.822.822 0 .454.368.822.822.822zM19.046 15.888c-1.371 0-2.111.473-2.705.853-.519.332-.929.595-1.819.595-.89 0-1.3-.263-1.818-.595-.595-.38-1.335-.853-2.706-.853s-2.11.473-2.703.853c-.518.332-.928.595-1.818.595s-1.3-.263-1.817-.595c-.595-.38-1.335-.853-2.706-.853-.454 0-.822.368-.822.823 0 .454.368.822.822.822.89 0 1.3.262 1.818.594.594.38 1.333.853 2.704.853 1.371 0 2.11-.473 2.704-.853.518-.332.927-.594 1.817-.594.89 0 1.3.262 1.82.594.594.38 1.334.853 2.705.853s2.111-.473 2.706-.853c.519-.332.928-.594 1.82-.594.453 0 .821-.368.821-.822 0-.455-.369-.823-.823-.823z" transform="translate(-282 -215) translate(20 97) translate(202 61) translate(55 52) translate(5 5)"/>
                        </g>
                    </g>
                </g>
            </g>
        </g>
    </g>
</svg>