<svg viewBox="0 0 288.18 288.3" xmlns="http://www.w3.org/2000/svg" xmlns:xlink="http://www.w3.org/1999/xlink"><linearGradient id="a" gradientUnits="userSpaceOnUse" x1="43.48" x2="248.02" y1="250.17" y2="45.63"><stop offset="0" stop-color="#ee2037"/><stop offset="1" stop-color="#ef4e86"/></linearGradient><linearGradient id="b" x1="101.5" x2="182.23" xlink:href="#a" y1="121.01" y2="40.28"/><linearGradient id="c" x1="158.59" x2="207.89" xlink:href="#a" y1="84.81" y2="35.51"/><linearGradient id="d" x1="85.46" x2="135.22" xlink:href="#a" y1="251.88" y2="202.12"/><linearGradient id="e" x1="149.29" x2="194.88" xlink:href="#a" y1="100.22" y2="54.63"/><linearGradient id="f" x1="151.71" x2="193.49" xlink:href="#a" y1="116.94" y2="75.15"/><linearGradient id="g" x1="109.38" x2="138.04" xlink:href="#a" y1="202.31" y2="173.65"/><path d="m79.22 198.51 78-4.94c-2.57-10-7.19-18.79-13-27.15.51-.24.87-.44 1.26-.58l27.52-10.22c.68-.26 1.22-.55 1.82.31 6.66 9.44 12.4 19.35 15.71 30.5 6.31 21.29.82 39.33-15.17 54.41-9 8.44-19.44 14.58-30.55 19.67-4.41 2-9 3.76-13.43 5.61a7.59 7.59 0 0 1 -1.07.27c16.4-14.9 27.58-32.23 28.91-54.92-.72 0-1.19 0-1.66 0l-34.71 2.19-24.85 1.56c-10.81.68-21.61 1.38-32.41 2-1.13.07-1.17.85-1.37 1.53-4.42 15.09-1.48 28.35 10 39.35 7 6.72 15.59 10.82 24.67 13.93a141.11 141.11 0 0 0 32.27 6.65 156.5 156.5 0 0 0 17.55 1.13c33.39-.55 62.53-12.14 87.41-34.37a139.25 139.25 0 0 0 24.28-29.2c5.34-8.32 10.28-16.81 13.89-26a133.39 133.39 0 0 0 8.71-37.95 173.25 173.25 0 0 0 -10.24-74 1.78 1.78 0 0 1 -.06-1.29c.24.38.5.74.71 1.13a140.85 140.85 0 0 1 16.26 50.17c8.59 68.77-31.47 133-96.87 155.16a139.35 139.35 0 0 1 -56.28 7.12c-17.55-1.38-34.82-4.29-51.34-10.69-12.52-4.85-23.92-11.48-33.24-21.31-8.08-8.52-13.72-18.39-15.93-30-1.67-8.81 0-17.11 4-25 4.78-9.27 11.75-16.73 19.59-23.44 12.77-10.91 27.18-19.28 42-27 15.4-7.91 31.4-14.14 47.4-20.48 13.19-5.22 26.31-10.58 38.65-17.64s23.68-15.12 33.12-25.74c1.78-2 3.4-4.14 5.1-6.22l-.18-.38-15.61 1a9.75 9.75 0 0 1 .57-1 52.36 52.36 0 0 0 7.15-12.68c.31-.81.82-.89 1.54-.93 4.22-.26 8.44-.57 12.77-.87a23.75 23.75 0 0 0 .17-8.73c-1.14-7.43-4.91-13.49-10-18.81-8.06-8.43-17.81-14.23-28.7-18.28a131.81 131.81 0 0 0 -53.35-8.31c-29.79 1.57-56.14 12-79.14 31-8.35 6.93-16.42 14.14-23.33 22.54a125.37 125.37 0 0 0 -27.33 60.39c-4.67 28.43-1.34 56.14 7.9 83.27a3.29 3.29 0 0 1 .25 1.43c-.25-.47-.52-.93-.76-1.4a142.7 142.7 0 0 1 -14.41-49.57c-7.5-72.73 40.75-140.03 112.12-155.41 42.65-9.19 82-.7 117.26 25.07a52.77 52.77 0 0 1 21.11 32.39c2.78 13 .09 24.9-7.32 35.82-6.45 9.49-14.88 17-24.2 23.5-15.87 11.13-33.38 18.9-51.53 25.49-20.2 7.4-40.58 14.44-59.19 25.56-11.23 6.71-22 14.06-31.5 23-.35.33-.72.64-1.07 1z" fill="url(#a)" transform="translate(-2.65 -2.73)"/><path d="m167.32 25.5c-5.08 4.5-10.32 8.75-15.19 13.5a72.84 72.84 0 0 0 -17.77 26.34c-5.8 15.24-4.26 30 3.19 44.28a83.72 83.72 0 0 0 9.72 14.46c.3.36.58.74.95 1.22-.61.27-1.12.51-1.64.71-9.09 3.65-18.2 7.27-27.28 11a1.83 1.83 0 0 1 -2.45-.58c-7.53-8.41-13.66-17.65-16.88-28.57-5-16.9-1.16-32 9.82-45.48 6.82-8.38 15.23-14.91 24.36-20.56a203.47 203.47 0 0 1 32.61-15.89c.26-.1.53-.16.79-.25z" fill="url(#b)" transform="translate(-2.65 -2.73)"/><path d="m140.42 66.64a10.85 10.85 0 0 1 .46-1.42c2.08-4 4.13-8.12 6.29-12.13a2.35 2.35 0 0 1 1.69-1q26.26-1.77 52.54-3.43c5.95-.39 11.9-.78 17.85-1.11a1.79 1.79 0 0 1 1.37.69 32.68 32.68 0 0 1 4.83 12.87z" fill="url(#c)" transform="translate(-2.65 -2.73)"/><path d="m151.75 218.65c-1.09 3.74-2.2 7.2-3.1 10.72-.62 2.36-1.79 3.23-4.37 3.35-11.82.56-23.62 1.41-35.43 2.16-12.34.78-24.67 1.53-37 2.36-1.34.09-1.62-.36-1.67-1.55a36.16 36.16 0 0 1 1.1-11 1.33 1.33 0 0 1 1.46-1.17q22.9-1.41 45.8-2.87l31.25-2c.46-.03.93 0 1.96 0z" fill="url(#d)" transform="translate(-2.65 -2.73)"/><path d="m137.56 88.49a48.39 48.39 0 0 1 .55-13.27c.07-.35.78-.79 1.23-.82 6.13-.46 12.28-.84 18.42-1.25l32.66-2.21 19.49-1.28c-.18.56-.28 1-.44 1.41a47.39 47.39 0 0 1 -7.07 12.33 2.55 2.55 0 0 1 -1.67.82c-8 .59-16 1.12-24 1.67l-32.73 2.2c-2.07.14-4.18.26-6.44.4z" fill="url(#e)" transform="translate(-2.65 -2.73)"/><path d="m210.21 92.05a7.72 7.72 0 0 0 -1.06.69 131.23 131.23 0 0 1 -18 13.52 4.49 4.49 0 0 1 -2 .64q-22 1.44-43.92 2.79a1.5 1.5 0 0 1 -1.21-.43 55.53 55.53 0 0 1 -5.14-13.14l71-4.54z" fill="url(#f)" transform="translate(-2.65 -2.73)"/><path d="m147.55 187.63-49.71 3.13-.09-.31a13.47 13.47 0 0 1 1.17-.95c5-3.47 10-6.94 15.08-10.37a4.24 4.24 0 0 1 2-.63q12.15-.85 24.32-1.6c.45 0 1.18.11 1.36.41 1.94 3.29 3.79 6.63 5.87 10.32z" fill="url(#g)" transform="translate(-2.65 -2.73)"/></svg>