<?xml version="1.0" encoding="utf-8"?>
<!-- Generator: Adobe Illustrator 24.0.1, SVG Export Plug-In . SVG Version: 6.00 Build 0)  -->
<svg version="1.1" id="Layer_1" xmlns="http://www.w3.org/2000/svg" xmlns:xlink="http://www.w3.org/1999/xlink" x="0px" y="0px"
	 viewBox="0 0 539.9 595" style="enable-background:new 0 0 539.9 595;" xml:space="preserve">
<style type="text/css">
	.st0{fill:#FFCE03;}
</style>
<title>logo</title>
<path class="st0" d="M363,488.4c-53.6,30.7-130.1,31.1-185.2,0.6c-27.5-15.4-49.2-37-64.7-64.3c-11.4-20.9-18.5-43.8-21.3-68.4H5.9
	c3.1,39.3,14.2,75.4,32.9,107.2c22.7,38.7,55.2,69.8,96.6,92.5c39.5,21.4,84.7,32.3,134.6,32.3c49.1,0,94.7-10.9,135.3-32.4
	c40.3-21.3,72.5-51.7,96-90.4c18.7-31.4,29.8-68.1,32.8-109.2h-85.8c-2.7,25.4-9.4,48.1-20.2,67.7v0.1
	C413,451.1,391.1,472.8,363,488.4z"/>
<g>
	<path class="st0" d="M143.5,343.9c0,0,2.5,112.9,106.6,126.9c104.1,14,149.7-76.1,145.9-126.9c0,0-58.4-35.5-118,0
		S189.2,371.8,143.5,343.9z"/>
	<circle class="st0" cx="283.3" cy="248.8" r="42.5"/>
	<circle class="st0" cx="209.8" cy="139.5" r="28.8"/>
	<circle class="st0" cx="269.9" cy="32.7" r="25.9"/>
</g>
</svg>
