<?xml version="1.0" encoding="utf-8"?>
<!-- Generator: Adobe Illustrator 24.0.1, SVG Export Plug-In . SVG Version: 6.00 Build 0)  -->
<svg version="1.1" id="Layer_1" xmlns="http://www.w3.org/2000/svg" xmlns:xlink="http://www.w3.org/1999/xlink" x="0px" y="0px"
	 viewBox="0 0 600 85" style="enable-background:new 0 0 600 85;" xml:space="preserve">
<style type="text/css">
	.st0{fill:#FFCE03;}
	.st1{fill:#FFFFFF;}
</style>
<g>
	<path class="st0" d="M30.1,23c-2.7-1.7-5.8-2.4-9.1-2.4c-2.2,0-4.3,0.4-6.2,1.1s-3.7,1.9-5.3,3.3l-2,1.9v-6.3H1.3V74h6.2V51.4l2,2
		c1.6,1.5,3.3,2.6,5.3,3.4s4,1.1,6.3,1.1c3.3,0,6.4-0.8,9.2-2.5c2.7-1.7,4.9-3.9,6.3-6.8c1.6-2.9,2.3-6.1,2.3-9.6
		c0-3.3-0.8-6.3-2.3-9.1C35.1,26.8,32.8,24.6,30.1,23z M31,45.8c-1.1,2.1-2.6,3.6-4.6,4.8c-1.9,1.1-4,1.8-6.4,1.8
		c-2.5,0-4.7-0.6-6.5-1.8c-2-1-3.5-2.7-4.6-4.8c-1-2-1.6-4.4-1.6-6.8c0-2.2,0.5-4.3,1.6-6.3c1-2.1,2.6-3.7,4.5-4.8
		c3.6-2.1,8.8-2.3,13,0c2,1,3.5,2.6,4.6,4.7c1,2,1.6,4.2,1.6,6.4C32.5,41.5,32,43.9,31,45.8z"/>
	<path class="st0" d="M73,22.9c-2.6-1.6-5.8-2.3-9.4-2.3c-3.4,0-6.6,0.8-9.4,2.5c-2.9,1.7-5.2,3.9-6.8,6.7c-1.7,2.8-2.5,5.9-2.5,9.2
		c0,3.5,0.8,6.6,2.5,9.5c1.7,2.8,3.9,5.2,7,6.8s6.3,2.5,10,2.5c3.8,0,7.4-0.9,10.5-2.8c2.8-1.7,5-3.8,6.5-6.6l-4.8-2.6
		c-2.8,4.4-6.8,6.5-12,6.5c-2.6,0-4.9-0.5-7-1.6c-2.1-1-3.6-2.6-4.9-4.6c-0.9-1.7-1.5-3.3-1.6-4.9l-0.1-1.3h31c0-0.3,0-0.7,0-1.1
		c0-3.5-0.8-6.7-2.5-9.5C78,26.6,75.7,24.5,73,22.9z M51.6,35.1l0.4-1.5c0.6-2.2,2.1-4,4.3-5.5c4.2-2.7,10.1-2.9,14.8-0.1
		c2.4,1.3,3.8,3.3,4.5,5.6l0.4,1.5H51.6z"/>
	<path class="st0" d="M91.8,25.2c-2.4,2.7-3.6,7.1-3.7,12.9L87.9,58h6.3v-20c0-4.2,0.6-7.1,2-8.7c1.3-1.8,3.7-2.7,7.1-2.7l4.7,0.1
		v-5.5c-0.8,0-2.3,0-4.7,0C98,21.1,94,22.5,91.8,25.2z"/>
	<g>
		<path class="st0" d="M117.1,7.7c-1,0-1.9,0.4-2.7,1.1l0,0c-0.8,0.7-1.1,1.7-1.1,2.7s0.4,2,1.1,2.8c1.6,1.6,3.8,1.6,5.5,0
			c0.8-0.8,1.1-1.7,1.1-2.7s-0.4-2-1.1-2.7C119,8.1,118.1,7.7,117.1,7.7z"/>
		<rect x="114" y="20.5" class="st0" width="6.3" height="37.5"/>
	</g>
	<path class="st0" d="M189.2,20.5c-3.3,0-6.3,0.8-9,2.5s-4.9,3.9-6.5,6.8c-1.6,2.8-2.3,5.8-2.3,9c0,3.5,0.7,6.8,2.3,9.8
		c1.6,2.9,3.6,5.2,6.4,6.8c2.7,1.7,5.7,2.5,9.1,2.5c2.3,0,4.5-0.4,6.4-1.1c2-0.8,3.7-2,5.4-3.4l2-1.9V58h6.1V7.7H203v19.1l-2-1.8
		c-1.6-1.5-3.4-2.6-5.4-3.3C193.5,20.9,191.4,20.5,189.2,20.5z M201.3,32.6c1,1.9,1.6,4,1.6,6.3c0,2.6-0.5,4.9-1.6,6.8l0,0
		c-1,2-2.6,3.6-4.5,4.8c-1.8,1.1-4,1.8-6.5,1.8c-2.4,0-4.6-0.5-6.4-1.7c-2-1.1-3.4-2.7-4.5-4.8c-1-2-1.7-4.4-1.7-7
		c0-2.3,0.5-4.4,1.6-6.3s2.6-3.5,4.6-4.7c4-2.4,9.2-2.3,13-0.1C198.6,28.9,200.2,30.6,201.3,32.6z"/>
	<path class="st0" d="M230.1,52.5c-3.3,0-5.7-0.9-7.1-2.7c-1.3-1.8-2-4.6-2-8.7V20.5h-6.2v21.4c0,5.7,1.2,9.9,3.5,12.3
		c2.4,2.5,6.3,3.7,11.7,3.7c5.4,0,9.3-1.2,11.7-3.7c2.4-2.5,3.5-6.6,3.5-12.3V20.5h-6.2v20.5c0,2.8-0.2,5-0.7,6.5
		c-0.5,1.8-1.6,3-2.9,3.8C234.1,52.2,232.3,52.5,230.1,52.5z"/>
	<path class="st0" d="M299,22c-3.6-2-8.9-2.1-13.1-0.2c-1.9,0.8-3.6,2.2-5,3.9l-0.9,1.1l-0.9-1.2c-1.1-1.6-2.7-2.8-4.7-3.7
		c-2-0.9-4.2-1.3-6.5-1.3c-3.2,0-6.2,1-8.7,2.9l-1.9,1.5v-4.3h-6.2v37.5h6.2V33.3c0-2.1,1-3.8,3.1-5.3c1.9-1.5,4.2-2.2,6.5-2.2
		c2.6,0,4.6,0.8,6.1,2.5c1.5,1.7,2.2,3.8,2.2,6.5v23h6.1V33.6c0-2.1,1-3.9,3-5.5c1.9-1.6,4-2.3,6.4-2.3c2.6,0,4.7,0.9,6.2,2.6
		c1.5,1.7,2.2,4,2.2,6.8v22.6h6.2V34c0-2.8-0.6-5.2-1.8-7.4C302.7,24.6,301.1,23,299,22z"/>
	<path class="st0" d="M152.7,50.5c-3.9,2.3-9.6,2.3-13.8,0c-2.1-1.1-3.6-2.8-4.8-4.8c-0.8-1.6-1.3-3.2-1.6-5.1h-6.4
		c0.2,2.9,1,5.6,2.5,8c1.7,2.9,4.2,5.2,7.2,6.8c2.9,1.6,6.3,2.4,10,2.4c3.6,0,7.1-0.8,10.1-2.4s5.4-3.8,7.2-6.7
		c1.3-2.4,2.2-5.1,2.5-8.1h-6.3c-0.2,1.9-0.7,3.5-1.5,5.1l0,0C156.4,47.8,154.7,49.4,152.7,50.5z"/>
	<g>
		<path class="st0" d="M136.4,39.8c0,0,0.2,8.4,7.9,9.4c7.8,1,11.1-5.7,10.9-9.4c0,0-4.4-2.6-8.8,0S139.7,41.9,136.4,39.8z"/>
		<circle class="st0" cx="146.7" cy="32.8" r="3.1"/>
		<circle class="st0" cx="141.2" cy="24.6" r="2.2"/>
		<circle class="st0" cx="145.7" cy="16.7" r="2"/>
	</g>
</g>
<g>
	<path class="st1" d="M371.6,42.2c0,3.9-3,6.8-6.8,6.8c-2.5,0-4.6-1.3-5.6-3.3v3h-1.3V30.4h1.3v8.3c1.1-2,3.1-3.3,5.6-3.3
		C368.6,35.3,371.6,38.3,371.6,42.2z M370.3,42.2c0-3.1-2.4-5.6-5.5-5.6s-5.5,2.5-5.5,5.6s2.4,5.6,5.5,5.6S370.3,45.3,370.3,42.2z"
		/>
	<path class="st1" d="M385.2,35.6l-5.7,14.3c-1,2.5-2.9,4.2-5.2,4v-1.2c1.8,0.2,3.1-1.2,3.9-3.1l0.3-0.7l-6-13.3h1.4l5.3,11.6
		l4.6-11.6H385.2z"/>
	<path class="st1" d="M405.4,47.4v1.3h-10.5V30.4h10.4v1.3h-9v7.1h8.4v1.3h-8.4v7.3H405.4z"/>
	<path class="st1" d="M419.5,35.6L414,48.7h-1.6l-5.5-13.1h1.4l4.9,11.7l4.9-11.7H419.5z"/>
	<path class="st1" d="M427.6,35.4v1.3c-2.3,0-4.4,1.4-4.4,4.7v7.3h-1.3V35.6h1.3v2.6C424.1,36.1,425.8,35.4,427.6,35.4z"/>
	<path class="st1" d="M429.8,31.4c0-0.5,0.5-1,1-1c0.6,0,1,0.5,1,1c0,0.6-0.5,1-1,1C430.3,32.5,429.8,32,429.8,31.4z M430.2,35.6
		h1.3v13.1h-1.3V35.6z"/>
	<path class="st1" d="M454.3,40.4v8.3H453v-8.3c0-2.5-1.4-3.8-3.5-3.8c-2.2,0-3.9,1.5-3.9,4.8v7.3h-1.3v-8.3c0-2.5-1.3-3.8-3.3-3.8
		c-2.1,0-4.1,1.5-4.1,4.8v7.3h-1.3V35.6h1.3v2.3c1-1.8,2.5-2.5,4.2-2.5c1.9,0,3.4,0.9,4.1,2.7c0.9-1.8,2.6-2.7,4.4-2.7
		C452.3,35.3,454.3,37.1,454.3,40.4z"/>
	<path class="st1" d="M475.8,44.1h-9.2l-1.8,4.7h-1.5l7.1-18.3h1.5l7.1,18.3h-1.5L475.8,44.1z M475.3,42.7l-4.1-10.7l-4.1,10.7
		H475.3z"/>
	<path class="st1" d="M494.1,35.6v12.5c0,3.9-2.9,6.1-6.5,6.1c-3.1,0-5.2-1.2-6.2-3.1l1.2-0.7c0.7,1.4,2.1,2.5,5,2.5
		c3.3,0,5.2-1.9,5.2-4.9v-2.4c-1.1,2-3.1,3.3-5.6,3.3c-3.7,0-6.8-3-6.8-6.8s3-6.8,6.8-6.8c2.5,0,4.6,1.3,5.6,3.3v-3H494.1z
		 M492.8,42.2c0-3.1-2.4-5.6-5.5-5.6s-5.5,2.5-5.5,5.6s2.4,5.6,5.5,5.6S492.8,45.3,492.8,42.2z M483.9,30.7h1.3c0,1.4,0.8,2,2.2,2
		s2.2-0.7,2.2-2h1.3c0,2-1.4,3.2-3.5,3.2C485.3,33.9,483.9,32.7,483.9,30.7z"/>
	<path class="st1" d="M511,35.6v13.1h-1.3v-3c-1.1,2-3.1,3.2-5.6,3.2c-3.7,0-6.8-3-6.8-6.8s3.1-6.8,6.8-6.8c2.5,0,4.5,1.3,5.6,3.2
		v-3H511z M509.6,42.2c0-3.1-2.4-5.6-5.5-5.6s-5.5,2.5-5.5,5.6s2.4,5.6,5.5,5.6S509.6,45.3,509.6,42.2z"/>
	<path class="st1" d="M514.1,42.2c0-3.9,2.9-6.8,6.9-6.8c2.6,0,4.8,1.3,5.7,3.3l-1.1,0.6c-0.8-1.6-2.5-2.7-4.6-2.7
		c-3.2,0-5.5,2.5-5.5,5.6s2.4,5.6,5.5,5.6c2.1,0,3.8-1.1,4.7-2.7l1.1,0.7c-1,2-3.2,3.3-5.8,3.3C517,49,514.1,46,514.1,42.2z"/>
	<path class="st1" d="M529.7,35.6h1.3v13.1h-1.3V35.6z"/>
</g>
<rect x="333.4" y="12.8" transform="matrix(-1 -1.224647e-16 1.224647e-16 -1 667.7484 84.7319)" class="st1" width="1" height="59.1"/>
<g>
</g>
<g>
</g>
<g>
</g>
<g>
</g>
<g>
</g>
<g>
</g>
<g>
</g>
<g>
</g>
<g>
</g>
<g>
</g>
<g>
</g>
</svg>
