<?xml version="1.0" encoding="utf-8"?>
<!-- Generator: Adobe Illustrator 24.0.1, SVG Export Plug-In . SVG Version: 6.00 Build 0)  -->
<svg version="1.1" xmlns="http://www.w3.org/2000/svg" xmlns:xlink="http://www.w3.org/1999/xlink" x="0px" y="0px"
	 viewBox="0 0 600 85" style="enable-background:new 0 0 600 85;" xml:space="preserve">
<style type="text/css">
	.st0{fill:#1A1F2A;}
	.st1{fill:#FFCE03;}
	.st2{fill:#FFFFFF;}
</style>
<g id="LOGO">
	<rect x="-3.2" class="st0" width="336.5" height="85"/>
	<g>
		<path class="st1" d="M30.1,23c-2.7-1.7-5.8-2.4-9.1-2.4c-2.2,0-4.3,0.4-6.2,1.1s-3.7,1.9-5.3,3.3l-2,1.9v-6.3H1.3V74h6.2V51.4l2,2
			c1.6,1.5,3.3,2.6,5.3,3.4s4,1.1,6.3,1.1c3.3,0,6.4-0.8,9.2-2.5c2.7-1.7,4.9-3.9,6.3-6.8c1.6-2.9,2.3-6.1,2.3-9.6
			c0-3.3-0.8-6.3-2.3-9.1C35.1,26.8,32.8,24.6,30.1,23z M31,45.8c-1.1,2.1-2.6,3.6-4.6,4.8c-1.9,1.1-4,1.8-6.4,1.8
			c-2.5,0-4.7-0.6-6.5-1.8c-2-1-3.5-2.7-4.6-4.8c-1-2-1.6-4.4-1.6-6.8c0-2.2,0.5-4.3,1.6-6.3c1-2.1,2.6-3.7,4.5-4.8
			c3.6-2.1,8.8-2.3,13,0c2,1,3.5,2.6,4.6,4.7c1,2,1.6,4.2,1.6,6.4C32.5,41.5,32,43.9,31,45.8z"/>
		<path class="st1" d="M73,22.9c-2.6-1.6-5.8-2.3-9.4-2.3c-3.4,0-6.6,0.8-9.4,2.5c-2.9,1.7-5.2,3.9-6.8,6.7
			c-1.7,2.8-2.5,5.9-2.5,9.2c0,3.5,0.8,6.6,2.5,9.5c1.7,2.8,3.9,5.2,7,6.8s6.3,2.5,10,2.5c3.8,0,7.4-0.9,10.5-2.8
			c2.8-1.7,5-3.8,6.5-6.6l-4.8-2.6c-2.8,4.4-6.8,6.5-12,6.5c-2.6,0-4.9-0.5-7-1.6c-2.1-1-3.6-2.6-4.9-4.6c-0.9-1.7-1.5-3.3-1.6-4.9
			L51,39.9h31c0-0.3,0-0.7,0-1.1c0-3.5-0.8-6.7-2.5-9.5C78,26.6,75.7,24.5,73,22.9z M51.6,35.1l0.4-1.5c0.6-2.2,2.1-4,4.3-5.5
			c4.2-2.7,10.1-2.9,14.8-0.1c2.4,1.3,3.8,3.3,4.5,5.6l0.4,1.5H51.6z"/>
		<path class="st1" d="M91.8,25.2c-2.4,2.7-3.6,7.1-3.7,12.9L87.9,58h6.3V38c0-4.2,0.6-7.1,2-8.7c1.3-1.8,3.7-2.7,7.1-2.7l4.7,0.1
			v-5.5c-0.8,0-2.3,0-4.7,0C98,21.1,94,22.5,91.8,25.2z"/>
		<g>
			<path class="st1" d="M117.1,7.7c-1,0-1.9,0.4-2.7,1.1l0,0c-0.8,0.7-1.1,1.7-1.1,2.7s0.4,2,1.1,2.8c1.6,1.6,3.8,1.6,5.5,0
				c0.8-0.8,1.1-1.7,1.1-2.7s-0.4-2-1.1-2.7C119,8.1,118.1,7.7,117.1,7.7z"/>
			<rect x="114" y="20.5" class="st1" width="6.3" height="37.5"/>
		</g>
		<path class="st1" d="M189.2,20.5c-3.3,0-6.3,0.8-9,2.5s-4.9,3.9-6.5,6.8c-1.6,2.8-2.3,5.8-2.3,9c0,3.5,0.7,6.8,2.3,9.8
			c1.6,2.9,3.6,5.2,6.4,6.8c2.7,1.7,5.7,2.5,9.1,2.5c2.3,0,4.5-0.4,6.4-1.1c2-0.8,3.7-2,5.4-3.4l2-1.9V58h6.1V7.7H203v19.1l-2-1.8
			c-1.6-1.5-3.4-2.6-5.4-3.3C193.5,20.9,191.4,20.5,189.2,20.5z M201.3,32.6c1,1.9,1.6,4,1.6,6.3c0,2.6-0.5,4.9-1.6,6.8l0,0
			c-1,2-2.6,3.6-4.5,4.8c-1.8,1.1-4,1.8-6.5,1.8c-2.4,0-4.6-0.5-6.4-1.7c-2-1.1-3.4-2.7-4.5-4.8c-1-2-1.7-4.4-1.7-7
			c0-2.3,0.5-4.4,1.6-6.3s2.6-3.5,4.6-4.7c4-2.4,9.2-2.3,13-0.1C198.6,28.9,200.2,30.6,201.3,32.6z"/>
		<path class="st1" d="M230.1,52.5c-3.3,0-5.7-0.9-7.1-2.7c-1.3-1.8-2-4.6-2-8.7V20.5h-6.2v21.4c0,5.7,1.2,9.9,3.5,12.3
			c2.4,2.5,6.3,3.7,11.7,3.7s9.3-1.2,11.7-3.7s3.5-6.6,3.5-12.3V20.5H239V41c0,2.8-0.2,5-0.7,6.5c-0.5,1.8-1.6,3-2.9,3.8
			C234.1,52.2,232.3,52.5,230.1,52.5z"/>
		<path class="st1" d="M299,22c-3.6-2-8.9-2.1-13.1-0.2c-1.9,0.8-3.6,2.2-5,3.9l-0.9,1.1l-0.9-1.2c-1.1-1.6-2.7-2.8-4.7-3.7
			c-2-0.9-4.2-1.3-6.5-1.3c-3.2,0-6.2,1-8.7,2.9l-1.9,1.5v-4.3h-6.2v37.5h6.2V33.3c0-2.1,1-3.8,3.1-5.3c1.9-1.5,4.2-2.2,6.5-2.2
			c2.6,0,4.6,0.8,6.1,2.5s2.2,3.8,2.2,6.5v23h6.1V33.6c0-2.1,1-3.9,3-5.5c1.9-1.6,4-2.3,6.4-2.3c2.6,0,4.7,0.9,6.2,2.6
			s2.2,4,2.2,6.8v22.6h6.2V34c0-2.8-0.6-5.2-1.8-7.4C302.7,24.6,301.1,23,299,22z"/>
		<path class="st1" d="M152.7,50.5c-3.9,2.3-9.6,2.3-13.8,0c-2.1-1.1-3.6-2.8-4.8-4.8c-0.8-1.6-1.3-3.2-1.6-5.1h-6.4
			c0.2,2.9,1,5.6,2.5,8c1.7,2.9,4.2,5.2,7.2,6.8c2.9,1.6,6.3,2.4,10,2.4c3.6,0,7.1-0.8,10.1-2.4s5.4-3.8,7.2-6.7
			c1.3-2.4,2.2-5.1,2.5-8.1h-6.3c-0.2,1.9-0.7,3.5-1.5,5.1l0,0C156.4,47.8,154.7,49.4,152.7,50.5z"/>
		<g>
			<path class="st1" d="M136.4,39.8c0,0,0.2,8.4,7.9,9.4c7.8,1,11.1-5.7,10.9-9.4c0,0-4.4-2.6-8.8,0S139.7,41.9,136.4,39.8z"/>
			<circle class="st1" cx="146.7" cy="32.8" r="3.1"/>
			<circle class="st1" cx="141.2" cy="24.6" r="2.2"/>
			<circle class="st1" cx="145.7" cy="16.7" r="2"/>
		</g>
	</g>
	<rect x="333.3" y="12.8" class="st2" width="1" height="59.1"/>
</g>
<g id="EA">
	<g>
		<rect x="334.3" class="st0" width="265.7" height="85"/>
		<path class="st2" d="M377.6,42.7c0,5.3-4.2,9.4-9.3,9.4c-3.5,0-6.3-1.8-7.8-4.6v4.2h-1.8V26.5h1.8v11.4c1.5-2.8,4.3-4.6,7.8-4.6
			C373.4,33.3,377.6,37.4,377.6,42.7z M375.8,42.7c0-4.3-3.4-7.7-7.6-7.7c-4.3,0-7.6,3.4-7.6,7.7s3.4,7.7,7.6,7.7
			S375.8,47,375.8,42.7z"/>
		<path class="st2" d="M396.3,33.7l-7.8,19.7c-1.4,3.5-4,5.8-7.1,5.6v-1.7c2.4,0.2,4.3-1.6,5.4-4.2l0.4-1l-8.3-18.4h1.9l7.3,16
			l6.3-16C394.4,33.7,396.3,33.7,396.3,33.7z"/>
		<path class="st2" d="M424.1,49.9v1.8h-14.5V26.5H424v1.8h-12.4v9.8H423v1.8h-11.5v10C411.5,49.9,424.1,49.9,424.1,49.9z"/>
		<path class="st2" d="M443.6,33.7l-7.6,18h-2.2l-7.6-18h1.9l6.8,16.2l6.8-16.2H443.6z"/>
		<path class="st2" d="M454.7,33.5v1.7c-3.1,0-6,1.9-6,6.5v10h-1.8v-18h1.8v3.5C449.9,34.4,452.2,33.5,454.7,33.5z"/>
		<path class="st2" d="M457.8,27.9c0-0.8,0.6-1.4,1.4-1.4s1.4,0.6,1.4,1.4s-0.6,1.4-1.4,1.4S457.8,28.7,457.8,27.9z M458.3,33.7h1.8
			v18h-1.8V33.7z"/>
		<path class="st2" d="M491.5,40.3v11.4h-1.8V40.3c0-3.4-2-5.3-4.8-5.3c-3,0-5.4,2-5.4,6.6v10.1h-1.8V40.3c0-3.4-1.8-5.3-4.6-5.3
			c-3,0-5.6,2-5.6,6.6v10.1h-1.8v-18h1.8v3.1c1.3-2.5,3.5-3.5,5.8-3.5c2.6,0,4.7,1.3,5.6,3.7c1.3-2.5,3.6-3.7,6-3.7
			C488.8,33.3,491.5,35.8,491.5,40.3z"/>
		<path class="st2" d="M521.1,45.3h-12.7l-2.5,6.4h-2l9.8-25.2h2l9.8,25.2h-2L521.1,45.3z M520.4,43.5l-5.6-14.7l-5.6,14.7H520.4z"
			/>
		<path class="st2" d="M546.4,33.7v17.2c0,5.4-4,8.5-9,8.5c-4.2,0-7.2-1.7-8.5-4.3l1.6-0.9c0.9,1.9,3,3.5,6.9,3.5
			c4.5,0,7.2-2.6,7.2-6.7v-3.3c-1.5,2.8-4.3,4.6-7.8,4.6c-5.2,0-9.3-4.1-9.3-9.4s4.2-9.4,9.3-9.4c3.5,0,6.3,1.8,7.8,4.6v-4.2h1.8
			V33.7z M544.6,42.7c0-4.3-3.4-7.7-7.6-7.7s-7.6,3.4-7.6,7.7s3.4,7.7,7.6,7.7S544.6,47,544.6,42.7z M532.3,27h1.7
			c0,1.9,1.2,2.8,3.1,2.8c1.9,0,3.1-0.9,3.1-2.8h1.7c0,2.7-1.9,4.4-4.8,4.4C534.3,31.4,532.3,29.7,532.3,27z"/>
		<path class="st2" d="M569.6,33.7v18h-1.8v-4.1c-1.5,2.7-4.3,4.5-7.8,4.5c-5.1,0-9.3-4.1-9.3-9.4s4.2-9.4,9.3-9.4
			c3.5,0,6.2,1.8,7.8,4.5v-4.1C567.8,33.7,569.6,33.7,569.6,33.7z M567.8,42.7c0-4.3-3.3-7.7-7.6-7.7s-7.6,3.4-7.6,7.7
			s3.4,7.7,7.6,7.7S567.8,47,567.8,42.7z"/>
		<path class="st2" d="M574,42.7c0-5.3,4-9.4,9.5-9.4c3.5,0,6.6,1.8,7.9,4.6l-1.5,0.9c-1-2.3-3.5-3.8-6.4-3.8
			c-4.4,0-7.6,3.4-7.6,7.7s3.3,7.7,7.6,7.7c2.9,0,5.3-1.5,6.5-3.8l1.5,0.9c-1.4,2.8-4.5,4.6-8,4.6C578,52.1,574,48.1,574,42.7z"/>
		<path class="st2" d="M595.4,33.7h1.8v18h-1.8V33.7z"/>
	</g>
</g>
</svg>
