<svg xmlns="http://www.w3.org/2000/svg" width="16" height="16" viewBox="0 0 16 16">
    <g fill="none" fill-rule="evenodd">
        <g>
            <g>
                <g>
                    <g>
                        <path fill="#AA80FF" d="M16 8c0 4.418-3.582 8-8 8s-8-3.582-8-8 3.582-8 8-8 8 3.582 8 8" transform="translate(-462.000000, -336.000000) translate(158.000000, 310.000000) translate(176.000000, 26.000000) translate(128.000000, 0.000000)"/>
                        <path fill="#FFFFFE" d="M7.317 9.226c0-.103-.018-.202-.053-.296-.035-.095-.083-.177-.142-.247-.06-.071-.13-.127-.21-.167-.082-.04-.172-.061-.27-.061h-1.72v1.518h1.664c.102 0 .199-.019.288-.057.09-.037.167-.09.232-.158s.116-.147.154-.24c.038-.091.057-.19.057-.292zm-2.395-3.11V7.57h1.493c.19 0 .351-.065.484-.195.132-.13.198-.309.198-.536 0-.222-.06-.398-.183-.527-.121-.13-.271-.196-.45-.196H4.922zm3.523 3.321c0 .244-.048.457-.146.641-.097.185-.231.339-.402.463-.17.125-.368.22-.592.285-.225.065-.464.097-.719.097H3.801V5.158h3.086c.2 0 .38.044.543.13.163.087.3.2.415.338.113.138.201.295.263.47.063.176.094.353.094.532 0 .281-.07.546-.211.792s-.347.429-.617.547c.33.098.59.273.783.525.193.251.288.566.288.945zM11.943 8.437c-.027-.31-.14-.557-.343-.743-.202-.187-.447-.28-.736-.28-.141 0-.274.025-.396.075-.124.05-.233.12-.327.209-.095.089-.172.196-.233.323-.06.125-.095.264-.105.416h2.14zm-1.07 2.486c-.33 0-.63-.056-.898-.169-.53-.226-.903-.605-1.12-1.137-.103-.257-.154-.527-.154-.81 0-.294.05-.57.15-.83.213-.54.587-.923 1.12-1.153.271-.115.573-.172.91-.172.335 0 .636.057.9.172.87.38 1.281 1.223 1.243 2.14-.002.063-.009.116-.02.157H9.818c.016.163.055.307.118.433s.145.234.244.322c.1.09.213.158.339.205.125.048.256.071.393.071.21 0 .408-.051.594-.153.186-.103.313-.237.381-.405l.905.252c-.152.314-.394.572-.727.775-.334.201-.73.302-1.192.302zM9.486 6.116L12.244 6.116 12.244 5.432 9.486 5.432z" transform="translate(-462.000000, -336.000000) translate(158.000000, 310.000000) translate(176.000000, 26.000000) translate(128.000000, 0.000000)"/>
                    </g>
                </g>
            </g>
        </g>
    </g>
</svg>
