<svg xmlns="http://www.w3.org/2000/svg" width="16" height="16" viewBox="0 0 16 16">
    <g fill="none" fill-rule="evenodd">
        <g fill="#FFF">
            <g>
                <g>
                    <g>
                        <g>
                            <path d="M9.05 12.16l6.52-6.287c.573-.552.573-1.461 0-2.013-.572-.552-1.516-.552-2.089 0L8.004 9.122l-5.476-5.28c-.573-.551-1.517-.551-2.09 0C.152 4.12 0 4.493 0 4.85c0 .373.151.73.438 1.006l6.522 6.286c.573.57 1.516.57 2.09.018z" transform="translate(-1170 -132) translate(1126 53) translate(34 21) translate(-10 12) translate(20 46) rotate(90 8 8)"/>
                        </g>
                    </g>
                </g>
            </g>
        </g>
    </g>
</svg>
