<svg xmlns="http://www.w3.org/2000/svg" width="40" height="22" viewBox="0 0 40 22">
    <g fill="none" fill-rule="evenodd">
        <g>
            <g>
                <g>
                    <g>
                        <g transform="translate(-1190 -200) translate(1170 119) translate(0 40.039) translate(0 19.506) translate(20 21.56)">
                            <rect width="39" height="20.559" x=".5" y=".5" fill="#FFEF80" fill-opacity=".25" stroke="#FFEF80" stroke-opacity=".7" rx="2"/>
                            <path fill="#FFF" fill-rule="nonzero" d="M19.47 14.455c.327 0 .625-.068.895-.205.27-.137.475-.325.615-.565.02.233.108.416.265.55.157.133.358.2.605.2.267 0 .48-.076.64-.226.16-.151.24-.356.24-.616V7.905c0-.24-.085-.436-.255-.59-.17-.154-.388-.231-.655-.231s-.478.072-.635.215c-.157.144-.235.336-.235.575v2.043c-.147-.219-.352-.393-.615-.523s-.552-.195-.865-.195c-.427 0-.805.106-1.135.318-.33.212-.587.515-.77.908-.183.394-.275.85-.275 1.371 0 .52.093.982.28 1.386.187.404.445.717.775.94.33.222.705.333 1.125.333zm.54-1.365c-.3 0-.535-.113-.705-.34-.17-.225-.255-.543-.255-.954 0-.397.083-.702.25-.914.167-.212.403-.318.71-.318.313 0 .553.108.72.323.167.216.25.526.25.93 0 .41-.083.725-.25.944-.167.22-.407.329-.72.329z"/>
                        </g>
                    </g>
                </g>
            </g>
        </g>
    </g>
</svg>
