<svg xmlns="http://www.w3.org/2000/svg" width="16" height="16" viewBox="0 0 16 16">
    <g fill="none" fill-rule="evenodd">
        <g>
            <g>
                <g>
                    <g>
                        <path fill="#AA80FF" d="M16 8c0 4.418-3.582 8-8 8s-8-3.582-8-8 3.582-8 8-8 8 3.582 8 8" transform="translate(-366.000000, -336.000000) translate(158.000000, 310.000000) translate(176.000000, 26.000000) translate(32.000000, 0.000000)"/>
                        <path fill="#FFFFFE" d="M10.154 11.134c-.051-.293-.256-1.362-.73-2.666.266-.042.524-.058.766-.058.794 0 1.416.174 1.56.218-.171 1.036-.764 1.932-1.596 2.506zM8 11.802c-.872 0-1.676-.295-2.319-.79.108-.213.897-1.632 2.98-2.357h.004c.522 1.358.743 2.499.804 2.852-.452.19-.949.295-1.469.295zM4.198 8.006l.001-.094h.1c.472 0 2.11-.038 3.798-.539.102.2.2.403.29.606l-.126.039c-1.9.614-2.945 2.238-3.106 2.504-.596-.67-.957-1.552-.957-2.516zm2.169-3.429c.131.18.782 1.09 1.391 2.166-1.635.43-3.086.458-3.437.458h-.037c.252-1.16 1.035-2.124 2.083-2.624zM8 4.21c.959 0 1.836.355 2.505.942-.106.145-.68.863-1.964 1.348-.594-1.086-1.244-1.984-1.398-2.193.275-.064.562-.097.857-.097zm2.961 1.417c.513.636.825 1.44.84 2.315-.17-.035-.894-.17-1.758-.17-.28 0-.573.014-.867.05l-.076-.18c-.077-.18-.159-.358-.244-.534 1.33-.548 1.972-1.309 2.105-1.481zM8 3.506C5.519 3.506 3.5 5.522 3.5 8c0 2.479 2.019 4.494 4.5 4.494S12.5 10.48 12.5 8c0-2.478-2.019-4.494-4.5-4.494z" transform="translate(-366.000000, -336.000000) translate(158.000000, 310.000000) translate(176.000000, 26.000000) translate(32.000000, 0.000000)"/>
                    </g>
                </g>
            </g>
        </g>
    </g>
</svg>
