<svg xmlns="http://www.w3.org/2000/svg" width="76" height="14" viewBox="0 0 76 14">
    <g fill="none" fill-rule="evenodd">
        <g>
            <g>
                <g>
                    <g>
                        <g>
                            <path fill="#80FFFC" fill-opacity=".25" stroke="#80FFFC" stroke-opacity=".7" d="M74 .5c.414 0 .79.168 1.06.44.272.27.44.646.44 1.06h0v8.32c0 .414-.168.789-.44 1.06-.27.272-.646.44-1.06.44h0H2c-.414 0-.79-.168-1.06-.44-.272-.271-.44-.646-.44-1.06h0V2c0-.414.168-.79.44-1.06C1.21.667 1.585.5 2 .5h0z" transform="translate(-1190 -224) translate(1170 119) translate(0 40.039) translate(0 19.506) translate(20 46.199)"/>
                            <path fill="#FFF" fill-rule="nonzero" d="M37.84 10.318c.253 0 .465-.072.635-.216.17-.144.255-.356.255-.636V6.56h.55c.533 0 .8-.226.8-.677 0-.445-.267-.668-.8-.668h-.55v-.123c0-.219.048-.395.145-.529.097-.133.265-.21.505-.23l.26-.021c.207-.014.37-.077.49-.19s.18-.272.18-.477c0-.206-.063-.363-.19-.473-.127-.11-.333-.164-.62-.164-.087 0-.157.003-.21.01l-.26.02c-.633.049-1.135.26-1.505.632-.37.373-.562.888-.575 1.545h-.29c-.533 0-.8.223-.8.668 0 .451.267.677.8.677h.29v2.906c0 .28.085.492.255.636.17.144.382.216.635.216z" transform="translate(-1190 -224) translate(1170 119) translate(0 40.039) translate(0 19.506) translate(20 46.199)"/>
                        </g>
                    </g>
                </g>
            </g>
        </g>
    </g>
</svg>
