<svg xmlns="http://www.w3.org/2000/svg" width="14" height="15" viewBox="0 0 14 15">
    <g fill="none" fill-rule="evenodd">
        <g fill="#FFF">
            <g>
                <g>
                    <g>
                        <path d="M7.905 10.543l5.628-5.5c.495-.483.495-1.279 0-1.762-.494-.483-1.309-.483-1.803 0L7.004 7.885 2.277 3.266c-.494-.483-1.308-.483-1.803 0-.247.242-.378.569-.378.881 0 .327.13.64.378.881l5.628 5.5c.495.499 1.31.499 1.803.016z" transform="translate(-81.000000, -205.000000) translate(0.000000, 53.000000) translate(20.000000, 152.777439) translate(61.000000, 0.096037) translate(7.000000, 6.903963) rotate(-90.000000) translate(-7.000000, -6.903963)"/>
                    </g>
                </g>
            </g>
        </g>
    </g>
</svg>
