<svg xmlns="http://www.w3.org/2000/svg" width="14" height="14" viewBox="0 0 14 14">
    <g fill="none" fill-rule="evenodd">
        <g>
            <path fill="#232323" d="M0 0H14V14H0z"/>
            <path fill="#878c97" d="M.425 7.493c.06 0 .117.013.168.037l.009.002L3.53 8.83c.167.074.265.248.24.427-.024.18-.166.321-.347.35l-.501.076C3.82 11.003 5.35 11.839 7 11.839c2.018 0 3.86-1.25 4.582-3.111.217-.558.85-.838 1.417-.625.567.214.85.839.634 1.396C12.588 12.19 9.923 14 7 14c-2.402 0-4.629-1.224-5.926-3.155l-.313.463c-.101.151-.291.218-.467.165-.175-.052-.296-.211-.294-.393l.016-3.177c0-.04.009-.08.02-.117.047-.168.202-.293.389-.293zM7 0c2.402 0 4.629 1.223 5.927 3.153l.312-.461c.1-.151.292-.217.467-.165.176.052.296.212.294.393l-.015 3.176c0 .04-.01.08-.021.118-.046.169-.202.293-.388.293-.061 0-.118-.013-.17-.037l-.008-.002L10.47 5.17c-.167-.074-.265-.248-.24-.427.024-.18.166-.321.347-.35l.501-.076C10.18 2.997 8.65 2.162 7 2.162c-2.018 0-3.86 1.25-4.582 3.11-.217.558-.851.837-1.418.625C.434 5.683.15 5.058.366 4.5 1.412 1.809 4.078 0 7 0z"/>
        </g>
    </g>
</svg>
