<svg xmlns="http://www.w3.org/2000/svg" width="14" height="14" viewBox="0 0 14 14">
    <g fill="none" fill-rule="evenodd">
        <g>
            <path d="M0 0H14V14H0z"/>
            <path fill="#FFF" d="M.42 11.648l4.617-4.652L.42 2.379c-.56-.56-.56-1.435 0-1.96.524-.559 1.399-.559 1.959 0l4.617 4.618L11.648.42c.524-.56 1.399-.56 1.958 0 .525.524.525 1.399 0 1.959L8.954 6.996l4.652 4.652c.525.524.525 1.399 0 1.958-.56.525-1.434.525-1.958 0L6.996 8.954l-4.617 4.652c-.56.525-1.435.525-1.96 0-.559-.56-.559-1.434 0-1.958z"/>
        </g>
    </g>
</svg>
