<svg xmlns="http://www.w3.org/2000/svg" width="16" height="16" viewBox="0 0 16 16">
    <g fill="none" fill-rule="evenodd">
        <g>
            <g>
                <g>
                    <g>
                        <path fill="#AA80FF" d="M16 8c0 4.418-3.582 8-8 8s-8-3.582-8-8 3.582-8 8-8 8 3.582 8 8" transform="translate(-398.000000, -336.000000) translate(158.000000, 310.000000) translate(176.000000, 26.000000) translate(64.000000, 0.000000)"/>
                        <path fill="#FFFFFE" d="M10.483 4.973c-.303 0-.55.247-.55.55 0 .304.247.55.55.55.304 0 .55-.246.55-.55 0-.303-.246-.55-.55-.55M8.038 9.469c-.816 0-1.48-.664-1.48-1.48s.664-1.48 1.48-1.48c.817 0 1.48.664 1.48 1.48s-.663 1.48-1.48 1.48zm0-3.79c-1.273 0-2.31 1.036-2.31 2.31s1.037 2.31 2.31 2.31c1.275 0 2.31-1.036 2.31-2.31s-1.035-2.31-2.31-2.31z" transform="translate(-398.000000, -336.000000) translate(158.000000, 310.000000) translate(176.000000, 26.000000) translate(64.000000, 0.000000)"/>
                        <path fill="#FFFFFE" d="M6.127 4.181c-1.067 0-1.935.869-1.935 1.935v3.745c0 1.068.868 1.935 1.935 1.935h3.745c1.067 0 1.936-.867 1.936-1.935V6.116c0-1.066-.869-1.935-1.936-1.935H6.127zm3.745 8.498H6.127c-1.553 0-2.817-1.264-2.817-2.818V6.116C3.31 4.563 4.574 3.3 6.127 3.3h3.745c1.554 0 2.818 1.264 2.818 2.817v3.745c0 1.554-1.264 2.818-2.818 2.818z" transform="translate(-398.000000, -336.000000) translate(158.000000, 310.000000) translate(176.000000, 26.000000) translate(64.000000, 0.000000)"/>
                    </g>
                </g>
            </g>
        </g>
    </g>
</svg>
