<svg xmlns="http://www.w3.org/2000/svg" width="16" height="16" viewBox="0 0 16 16">
    <g fill="none" fill-rule="evenodd">
        <g>
            <g>
                <g>
                    <path fill="#AA80FF" d="M16 8c0 4.418-3.582 8-8 8s-8-3.582-8-8 3.582-8 8-8 8 3.582 8 8" transform="translate(-334.000000, -336.000000) translate(158.000000, 310.000000) translate(176.000000, 26.000000)"/>
                    <path fill="#FFFFFE" d="M5.42 4.037c.496 0 .897.402.897.897 0 .494-.401.897-.896.897-.498 0-.899-.403-.899-.897 0-.495.401-.897.899-.897zm-.775 7.45h1.55V6.51h-1.55v4.977zM7.165 6.51H8.65v.681h.02c.208-.392.712-.804 1.466-.804 1.566 0 1.854 1.03 1.854 2.37v2.73h-1.545v-2.42c0-.577-.011-1.32-.804-1.32-.805 0-.928.63-.928 1.278v2.462H7.165V6.51" transform="translate(-334.000000, -336.000000) translate(158.000000, 310.000000) translate(176.000000, 26.000000)"/>
                </g>
            </g>
        </g>
    </g>
</svg>
