<svg xmlns="http://www.w3.org/2000/svg" width="20" height="16" viewBox="0 0 20 16">
    <g fill="none" fill-rule="evenodd">
        <g fill="#FFF">
            <g>
                <g>
                    <g>
                        <g>
                            <path d="M10.89 4.434H1.232c-.551 0-1 .449-1 1 0 .553.449 1 1 1h9.83c.077 0 .154-.008.228-.027 1.229-.157 2.252-1.02 2.614-2.204.363-1.185-.002-2.472-.931-3.29C12.042.096 10.719-.103 9.59.408c-1.128.51-1.854 1.636-1.853 2.874 0 .553.449 1 1 1 .553 0 1-.447 1-1 0-.466.282-.886.712-1.064.43-.179.926-.08 1.256.25.33.329.428.825.25 1.256-.179.43-.599.71-1.065.71zM1.232 10.932h9.348c.552 0 1-.448 1-1s-.448-1-1-1H1.232c-.551 0-1 .448-1 1s.449 1 1 1z" transform="translate(-340 -217) translate(20 97) translate(202 61) translate(113 52) translate(5 7)"/>
                            <path d="M16.615 9.066c-1.74.001-3.15 1.412-3.152 3.152 0 .552.447 1 1 1 .552 0 1-.448 1-1 0-.467.28-.887.711-1.066.43-.177.927-.079 1.256.25.33.33.428.826.25 1.256-.179.43-.599.712-1.065.712H1.233c-.552 0-1 .447-1 1 0 .552.448 1 1 1h15.554c.077 0 .154-.01.228-.027 1.643-.219 2.837-1.672 2.731-3.326-.105-1.654-1.473-2.944-3.13-2.952z" transform="translate(-340 -217) translate(20 97) translate(202 61) translate(113 52) translate(5 7)"/>
                        </g>
                    </g>
                </g>
            </g>
        </g>
    </g>
</svg>
