<svg xmlns="http://www.w3.org/2000/svg" width="96" height="42" viewBox="0 0 96 42">
    <g fill="none" fill-rule="evenodd">
        <g>
            <path fill="#FFAF80" d="M15 42H2c-1.105 0-2-.895-2-2V6c0-1.105.895-2 2-2h2.667c.552 0 1 .448 1 1v3.588c0 .553.447 1 1 1h3.666c.553 0 1 .448 1 1v9.177c0 .552.448 1 1 1H15c1.105 0 2 .895 2 2V40c0 1.105-.895 2-2 2z"/>
            <rect width="6" height="6" x="90" fill="#FFAF80" rx="2"/>
            <path fill="#1A1F2A" fill-rule="nonzero" d="M8.46 33.08c.68 0 1.222-.145 1.625-.435.403-.29.605-.678.605-1.165 0-.433-.133-.765-.4-.995-.267-.23-.723-.402-1.37-.515-.387-.073-.645-.14-.775-.2s-.195-.143-.195-.25c0-.093.047-.165.14-.215.093-.05.223-.075.39-.075s.312.018.435.055c.123.037.265.092.425.165.24.113.447.17.62.17.147 0 .27-.063.37-.19.1-.127.15-.283.15-.47 0-.267-.103-.46-.31-.58-.22-.133-.472-.237-.755-.31-.283-.073-.575-.11-.875-.11-.413 0-.787.07-1.12.21-.333.14-.595.333-.785.58-.19.247-.285.523-.285.83 0 .42.132.745.395.975.263.23.692.402 1.285.515.333.067.57.118.71.155.14.037.235.075.285.115.05.04.075.097.075.17 0 .093-.052.165-.155.215-.103.05-.245.075-.425.075-.253 0-.462-.02-.625-.06-.163-.04-.352-.097-.565-.17-.127-.053-.233-.092-.32-.115-.087-.023-.18-.035-.28-.035-.147 0-.268.058-.365.175-.097.117-.145.265-.145.445 0 .14.027.267.08.38.053.113.127.193.22.24.233.147.503.253.81.32.307.067.683.1 1.13.1z"/>
        </g>
    </g>
</svg>
