<svg xmlns="http://www.w3.org/2000/svg" width="14" height="14" viewBox="0 0 14 14">
    <g fill="none" fill-rule="evenodd">
        <g>
            <path fill="#232323" d="M0 0H14V14H0z"/>
            <path fill="#FFF" d="M10.428 8.878c1.063-1.581 1.265-3.589.54-5.35C10.242 1.766 8.684.484 6.816.11c-1.868-.374-3.8.211-5.147 1.558C.322 3.016-.263 4.948.111 6.816c.373 1.868 1.655 3.426 3.417 4.152 1.761.725 3.769.523 5.35-.54l3.279 3.278c.432.402 1.105.39 1.522-.027.417-.417.43-1.09.027-1.522l-3.278-3.279zm-4.73.327c-.93 0-1.821-.369-2.479-1.027-.658-.658-1.027-1.55-1.027-2.48 0-.93.369-1.822 1.027-2.48.658-.657 1.55-1.026 2.48-1.026.93 0 1.821.369 2.479 1.027.658.657 1.027 1.55 1.027 2.48 0 .93-.369 1.821-1.027 2.479-.658.658-1.55 1.027-2.48 1.027z"/>
        </g>
    </g>
</svg>
