<svg xmlns="http://www.w3.org/2000/svg" width="18" height="16" viewBox="0 0 18 16">
    <g fill="none" fill-rule="evenodd">
        <g fill="#FFF">
            <g>
                <g>
                    <g>
                        <path d="M23.68 13.823l-3.376-5.715C19.898 7.421 19.165 7 18.375 7h-6.75c-.79 0-1.523.42-1.93 1.108l-3.374 5.715c-.428.724-.428 1.628 0 2.351l3.375 5.714c.406.69 1.138 1.112 1.929 1.112h6.75c.79 0 1.523-.42 1.93-1.108l3.374-5.715c.428-.724.428-1.628 0-2.351v-.003zm-2.604.034h-5.44l-2.7-4.571h5.44l2.7 4.571zM8.25 15l2.72-4.603L13.686 15l-2.716 4.603L8.25 15zm10.125 5.714h-5.44l2.701-4.571h5.44l-2.701 4.571z" transform="translate(-228 -217) translate(20 97) translate(202 61) translate(0 52)"/>
                    </g>
                </g>
            </g>
        </g>
    </g>
</svg>
