<svg xmlns="http://www.w3.org/2000/svg" width="16" height="16" viewBox="0 0 16 16">
    <g fill="none" fill-rule="evenodd">
        <g>
            <g>
                <g>
                    <g>
                        <path fill="#AA80FF" d="M16 8c0 4.418-3.581 8-8 8-4.418 0-8-3.582-8-8s3.582-8 8-8c4.419 0 8 3.582 8 8" transform="translate(-430.000000, -336.000000) translate(158.000000, 310.000000) translate(176.000000, 26.000000) translate(96.000000, 0.000000)"/>
                        <path fill="#FFFFFE" d="M12.42 5.26c-.277.124-.584.2-.882.25.141-.023.35-.28.434-.384.127-.159.233-.34.292-.534l-.001-.046-.047.004c-.334.179-.68.308-1.047.4l-.072-.019-.091-.093c-.155-.132-.32-.235-.507-.311-.245-.1-.513-.142-.777-.125-.257.017-.51.089-.738.208-.228.12-.432.286-.594.486-.168.207-.292.452-.356.711-.06.25-.056.499-.018.752l-.037.042c-1.437-.214-2.627-.728-3.594-1.83-.042-.048-.065-.048-.1.004-.422.634-.217 1.653.311 2.153.07.067.144.134.221.195-.029.006-.38-.033-.693-.195l-.068.037c-.003.068.003.131.012.206.081.643.527 1.237 1.136 1.469.073.03.152.057.23.07-.138.031-.281.053-.68.022-.05-.01-.068.015-.05.063.3.816.947 1.058 1.43 1.197.065.01.13.01.195.026l-.012.012c-.16.244-.717.426-.976.517-.471.165-.984.239-1.483.19-.079-.012-.096-.01-.118 0l.023.053c.101.067.204.126.31.183.315.168.645.301.99.397 1.78.491 3.787.13 5.125-1.199 1.05-1.043 1.418-2.482 1.418-3.923 0-.057.066-.087.106-.117.274-.205.494-.451.698-.726.045-.061.046-.116.046-.139V5.26h-.036" transform="translate(-430.000000, -336.000000) translate(158.000000, 310.000000) translate(176.000000, 26.000000) translate(96.000000, 0.000000)"/>
                    </g>
                </g>
            </g>
        </g>
    </g>
</svg>
