<svg xmlns="http://www.w3.org/2000/svg" width="13" height="20" viewBox="0 0 13 20">
    <g fill="none" fill-rule="evenodd">
        <g fill="#FFF">
            <g>
                <g>
                    <g>
                        <path d="M19.49 23.037c0 1.09-.908 1.963-2.045 1.963s-2.046-.872-2.046-1.963c0-1.09.909-1.963 2.046-1.963 1.135.035 2.046.908 2.046 1.963zM17.483 5C13.92 5 11 7.764 11 11.22c0 1.018.833 1.817 1.895 1.817s1.895-.8 1.895-1.818c0-1.418 1.212-2.582 2.692-2.582 1.477 0 2.691 1.163 2.691 2.582 0 .69-1.212 1.31-1.744 1.527-.114.037-.228.11-.303.182-1.934 1.31-2.881 3.564-2.35 5.78.19.837.986 1.418 1.857 1.418.15 0 .265 0 .417-.037 1.023-.218 1.667-1.163 1.44-2.144-.15-.728.115-1.492.72-1.963 3.297-1.492 3.79-3.6 3.79-4.765C23.963 7.764 21.043 5 17.482 5z" transform="translate(-402 -215) translate(20 97) translate(202 61) translate(169 52)"/>
                    </g>
                </g>
            </g>
        </g>
    </g>
</svg>
